{"title":"Neil Young Sings Neil Young BBC [Ehhhhtozebec]","uid":5393968,"size":322169990,"categoryP":"video","categoryS":"music_videos","magnet":"?xt=urn:btih:d669e8514024b31e799fdb51f75ed596ca242345&amp;dn=Neil+Young+Sings+Neil+Young+BBC+%5BEhhhhtozebec%5D&amp;tr=udp%3A%2F%2Ftracker.openbittorrent.com%3A80&amp;tr=udp%3A%2F%2Fopen.demonii.com%3A1337&amp;tr=udp%3A%2F%2Ftracker.coppersurfer.tk%3A6969&amp;tr=udp%3A%2F%2Fexodus.desync.com%3A6969","seeders":1,"leechers":0,"uploader":"mynameisurlz","files":1,"time":1267162845,"description":"Neil Young performs solo at BBC studios early '70's\n\nGeneral\nComplete name                    : C:Documents and SettingsMynameisurlzDesktopNeil Young Sings Neil Young BBCNeil Young Sings Neil Young  BBC [Ehhhhtozebec].avi\nFormat                           : AVI\nFormat/Info                      : Audio Video Interleave\nFile size                        : 307 MiB\nDuration                         : 32mn 0s\nOverall bit rate                 : 1 342 Kbps\n\nVideo\nID                               : 0\nFormat                           : MPEG-4 Visual\nFormat settings, BVOP            : No\nFormat settings, QPel            : No\nFormat settings, GMC             : No warppoints\nFormat settings, Matrix          : Default (H.263)\nCodec ID                         : DIVX\nCodec ID/Info                    : Project Mayo\nCodec ID/Hint                    : DivX 4\nDuration                         : 32mn 0s\nBit rate                         : 1 200 Kbps\nWidth                            : 704 pixels\nHeight                           : 480 pixels\nDisplay aspect ratio             : 1.467\nFrame rate                       : 29.970 fps\nResolution                       : 8 bits\nColorimetry                      : 4:2:0\nScan type                        : Progressive\nBits/(Pixel*Frame)               : 0.119\nStream size                      : 275 MiB (89%)\nWriting library                  : avc2.0.11.1110\n\nAudio\nID                               : 1\nFormat                           : MPEG Audio\nFormat version                   : Version 1\nFormat profile                   : Layer 3\nMode                             : Joint stereo\nFormat_Settings_ModeExtension    : MS Stereo\nCodec ID                         : 55\nCodec ID/Hint                    : MP3\nDuration                         : 32mn 0s\nBit rate mode                    : Constant\nBit rate                         : 128 Kbps\nChannel(s)                       : 2 channels\nSampling rate                    : 48.0 KHz\nStream size                      : 29.3 MiB (10%)\nAlignment                        : Aligned on interleaves\nInterleave, duration             : 24 ms (0.72 video frame)\n\n","torrent":{"xt":"urn:btih:d669e8514024b31e799fdb51f75ed596ca242345","amp;dn":"Neil+Young+Sings+Neil+Young+BBC+%5BEhhhhtozebec%5D","amp;tr":["udp%3A%2F%2Ftracker.openbittorrent.com%3A80","udp%3A%2F%2Fopen.demonii.com%3A1337","udp%3A%2F%2Ftracker.coppersurfer.tk%3A6969","udp%3A%2F%2Fexodus.desync.com%3A6969"],"infoHash":"d669e8514024b31e799fdb51f75ed596ca242345","infoHashBuffer":{"type":"Buffer","data":[214,105,232,81,64,36,179,30,121,159,219,81,247,94,213,150,202,36,35,69]},"announce":[],"urlList":[]}}